<svg xmlns="http://www.w3.org/2000/svg" width="500" height="300" viewBox="0 0 500 300">
  <title>GDG Cloud Ahmedabad - Central</title>
  <g>
    <g>
      <g>
        <path d="M79.72,186.71a11.14,11.14,0,0,1-4.18-4.19,12.08,12.08,0,0,1,0-11.77,11.21,11.21,0,0,1,4.18-4.19,11.47,11.47,0,0,1,5.78-1.51,12.39,12.39,0,0,1,4.61.86,9.33,9.33,0,0,1,3.54,2.45l-1.89,1.89a6.79,6.79,0,0,0-2.71-2,9.13,9.13,0,0,0-3.55-.69,8.72,8.72,0,0,0-4.35,1.13,8.58,8.58,0,0,0-3.25,3.19,9.81,9.81,0,0,0,0,9.51,8.6,8.6,0,0,0,3.25,3.2,8.82,8.82,0,0,0,4.35,1.13,9,9,0,0,0,3.74-.7,9,9,0,0,0,2.62-1.84,7,7,0,0,0,1.3-2.11,9,9,0,0,0,.59-2.7H85.57v-2.45H96.23a9.57,9.57,0,0,1,.15,1.62,12.52,12.52,0,0,1-.65,4,8.75,8.75,0,0,1-2.08,3.39,10.69,10.69,0,0,1-8.15,3.32A11.48,11.48,0,0,1,79.72,186.71Z" style="fill: #636d74"/>
        <path d="M102.18,187.16a7.52,7.52,0,0,1-2.81-2.95,9.09,9.09,0,0,1,0-8.33,7.52,7.52,0,0,1,2.81-2.95,7.79,7.79,0,0,1,4.06-1.07,7.9,7.9,0,0,1,4.07,1.07,7.48,7.48,0,0,1,2.82,2.95,9.09,9.09,0,0,1,0,8.33,7.48,7.48,0,0,1-2.82,2.95,7.9,7.9,0,0,1-4.07,1.07A7.79,7.79,0,0,1,102.18,187.16Zm6.66-2a5.34,5.34,0,0,0,1.94-2,6.84,6.84,0,0,0,0-6.11,5.34,5.34,0,0,0-1.94-2,5.08,5.08,0,0,0-5.18,0,5.25,5.25,0,0,0-1.93,2,6.76,6.76,0,0,0,0,6.11,5.25,5.25,0,0,0,1.93,2,5.08,5.08,0,0,0,5.18,0Z" style="fill: #636d74"/>
        <path d="M119.75,187.16a7.52,7.52,0,0,1-2.81-2.95,9.17,9.17,0,0,1,0-8.33,7.52,7.52,0,0,1,2.81-2.95,8.26,8.26,0,0,1,8.13,0,7.48,7.48,0,0,1,2.82,2.95,9.09,9.09,0,0,1,0,8.33,7.48,7.48,0,0,1-2.82,2.95,8.26,8.26,0,0,1-8.13,0Zm6.66-2a5.27,5.27,0,0,0,1.94-2,6.76,6.76,0,0,0,0-6.11,5.27,5.27,0,0,0-1.94-2,5.06,5.06,0,0,0-2.6-.71,5,5,0,0,0-2.57.71,5.2,5.2,0,0,0-1.94,2,6.76,6.76,0,0,0,0,6.11,5.2,5.2,0,0,0,1.94,2,5,5,0,0,0,2.57.71A5.06,5.06,0,0,0,126.41,185.13Z" style="fill: #636d74"/>
        <path d="M136.57,193.59a6.67,6.67,0,0,1-2.38-3.1l2.45-1a4.42,4.42,0,0,0,1.65,2.21,4.77,4.77,0,0,0,2.84.85,4.89,4.89,0,0,0,3.77-1.42,5.64,5.64,0,0,0,1.31-4V185.5h-.12a5.8,5.8,0,0,1-2.14,1.95,6.35,6.35,0,0,1-3.16.78,6.73,6.73,0,0,1-3.63-1.06,7.67,7.67,0,0,1-2.66-2.92,9.4,9.4,0,0,1,0-8.4,7.63,7.63,0,0,1,2.66-2.93,6.73,6.73,0,0,1,3.63-1.06,6.35,6.35,0,0,1,3.16.78,5.88,5.88,0,0,1,2.14,2h.12v-2.23h2.51v14.75a8.72,8.72,0,0,1-1,4.31,6.3,6.3,0,0,1-2.71,2.63,8.5,8.5,0,0,1-3.89.87A7.37,7.37,0,0,1,136.57,193.59Zm7.13-8.45a5.15,5.15,0,0,0,1.85-2,6.51,6.51,0,0,0,.69-3.08,6.59,6.59,0,0,0-.69-3.1,4.89,4.89,0,0,0-1.85-2,4.76,4.76,0,0,0-2.51-.69,4.71,4.71,0,0,0-2.51.7,5.13,5.13,0,0,0-1.84,2,7.15,7.15,0,0,0,0,6.17,5.13,5.13,0,0,0,1.84,2,4.85,4.85,0,0,0,5,0Z" style="fill: #636d74"/>
        <path d="M151.88,165.54h2.64v22.19h-2.64Z" style="fill: #636d74"/>
        <path d="M160.76,187.17a7.39,7.39,0,0,1-2.74-2.91,8.81,8.81,0,0,1-1-4.21,9.12,9.12,0,0,1,.93-4.11,7.35,7.35,0,0,1,2.65-3,7.18,7.18,0,0,1,3.95-1.1,7.53,7.53,0,0,1,3.92,1,6.6,6.6,0,0,1,2.59,2.84,9.41,9.41,0,0,1,.9,4.21,1.83,1.83,0,0,1-.07.62H159.69a5.71,5.71,0,0,0,.84,2.93,4.92,4.92,0,0,0,1.94,1.78,5.25,5.25,0,0,0,2.4.59,4.91,4.91,0,0,0,4.49-2.85l2.33,1.11a8,8,0,0,1-2.75,3,8.19,8.19,0,0,1-8.18.07Zm8.42-8.83a4.85,4.85,0,0,0-.53-1.86,4,4,0,0,0-1.5-1.58,5,5,0,0,0-2.65-.65,4.39,4.39,0,0,0-3,1.12,5,5,0,0,0-1.61,3Z" style="fill: #636d74"/>
        <path d="M182,165.54h6.72a12,12,0,0,1,6,1.41,9.71,9.71,0,0,1,3.91,3.92,12.9,12.9,0,0,1,0,11.53,9.71,9.71,0,0,1-3.91,3.92,12,12,0,0,1-6,1.41H182Zm6.72,19.68a8.59,8.59,0,1,0,0-17.17h-4.09v17.17Z" style="fill: #636d74"/>
        <path d="M206,187.17a7.34,7.34,0,0,1-2.75-2.91,8.81,8.81,0,0,1-1-4.21,9.12,9.12,0,0,1,.93-4.11,7.42,7.42,0,0,1,2.65-3,7.22,7.22,0,0,1,4-1.1,7.5,7.5,0,0,1,3.92,1,6.6,6.6,0,0,1,2.59,2.84,9.41,9.41,0,0,1,.9,4.21,2.22,2.22,0,0,1-.06.62H204.88a5.7,5.7,0,0,0,.83,2.93,5,5,0,0,0,1.94,1.78,5.32,5.32,0,0,0,2.4.59,4.94,4.94,0,0,0,4.5-2.85l2.32,1.11a8,8,0,0,1-2.74,3,8.19,8.19,0,0,1-8.18.07Zm8.41-8.83a4.85,4.85,0,0,0-.53-1.86,4,4,0,0,0-1.5-1.58,4.93,4.93,0,0,0-2.65-.65,4.39,4.39,0,0,0-3,1.12,5.05,5.05,0,0,0-1.61,3Z" style="fill: #636d74"/>
        <path d="M217.77,172.36h2.85l4.71,12.27h.06l4.78-12.27H233l-6.3,15.37H224Z" style="fill: #636d74"/>
        <path d="M237.77,187.17a7.39,7.39,0,0,1-2.74-2.91,8.81,8.81,0,0,1-1-4.21,9.12,9.12,0,0,1,.93-4.11,7.35,7.35,0,0,1,2.65-3,7.18,7.18,0,0,1,3.95-1.1,7.53,7.53,0,0,1,3.92,1,6.6,6.6,0,0,1,2.59,2.84,9.41,9.41,0,0,1,.9,4.21,1.83,1.83,0,0,1-.07.62H236.7a5.71,5.71,0,0,0,.84,2.93,4.92,4.92,0,0,0,1.94,1.78,5.25,5.25,0,0,0,2.4.59,4.91,4.91,0,0,0,4.49-2.85l2.33,1.11a8,8,0,0,1-2.75,3,8.19,8.19,0,0,1-8.18.07Zm8.42-8.83a4.85,4.85,0,0,0-.53-1.86,4,4,0,0,0-1.5-1.58,5,5,0,0,0-2.65-.65,4.39,4.39,0,0,0-3,1.12,5,5,0,0,0-1.61,3Z" style="fill: #636d74"/>
        <path d="M251.64,165.54h2.64v22.19h-2.64Z" style="fill: #636d74"/>
        <path d="M260.6,187.16a7.52,7.52,0,0,1-2.81-2.95,9.17,9.17,0,0,1,0-8.33,7.52,7.52,0,0,1,2.81-2.95,8.26,8.26,0,0,1,8.13,0,7.48,7.48,0,0,1,2.82,2.95,9.09,9.09,0,0,1,0,8.33,7.48,7.48,0,0,1-2.82,2.95,8.26,8.26,0,0,1-8.13,0Zm6.66-2a5.27,5.27,0,0,0,1.94-2,6.76,6.76,0,0,0,0-6.11,5.27,5.27,0,0,0-1.94-2,5.06,5.06,0,0,0-2.6-.71,5,5,0,0,0-2.57.71,5.27,5.27,0,0,0-1.94,2,6.76,6.76,0,0,0,0,6.11,5.27,5.27,0,0,0,1.94,2,5,5,0,0,0,2.57.71A5.06,5.06,0,0,0,267.26,185.13Z" style="fill: #636d74"/>
        <path d="M275,172.36h2.51v2.26h.12a6,6,0,0,1,2.14-2,6.48,6.48,0,0,1,3.22-.79,6.69,6.69,0,0,1,3.66,1.07,7.69,7.69,0,0,1,2.66,2.93,9.26,9.26,0,0,1,0,8.37,7.69,7.69,0,0,1-2.66,2.93,6.69,6.69,0,0,1-3.66,1.07,6.59,6.59,0,0,1-3.24-.79,5.62,5.62,0,0,1-2.12-2h-.12l.12,2.14v6.85H275Zm10.12,12.77a5.23,5.23,0,0,0,1.86-2,7.11,7.11,0,0,0,0-6.11,5.23,5.23,0,0,0-1.86-2,4.81,4.81,0,0,0-2.53-.71,4.74,4.74,0,0,0-2.52.7,4.9,4.9,0,0,0-1.86,2,7.1,7.1,0,0,0,0,6.15,4.9,4.9,0,0,0,1.86,2,4.74,4.74,0,0,0,2.52.7A4.81,4.81,0,0,0,285.07,185.13Z" style="fill: #636d74"/>
        <path d="M296.41,187.17a7.32,7.32,0,0,1-2.74-2.91,8.7,8.7,0,0,1-1-4.21,9.12,9.12,0,0,1,.93-4.11,7.42,7.42,0,0,1,2.65-3,7.22,7.22,0,0,1,3.95-1.1,7.5,7.5,0,0,1,3.92,1,6.6,6.6,0,0,1,2.59,2.84,9.41,9.41,0,0,1,.9,4.21,2.22,2.22,0,0,1-.06.62H295.34a5.7,5.7,0,0,0,.83,2.93,5,5,0,0,0,1.94,1.78,5.32,5.32,0,0,0,2.4.59A4.93,4.93,0,0,0,305,183l2.32,1.11a8,8,0,0,1-2.74,3,8.19,8.19,0,0,1-8.18.07Zm8.41-8.83a4.85,4.85,0,0,0-.53-1.86,4,4,0,0,0-1.5-1.58,4.93,4.93,0,0,0-2.65-.65,4.35,4.35,0,0,0-3,1.12,5,5,0,0,0-1.62,3Z" style="fill: #636d74"/>
        <path d="M310.28,172.36h2.51v2.51h.12a4.14,4.14,0,0,1,1.78-2.14,4.92,4.92,0,0,1,2.68-.87,5.32,5.32,0,0,1,1.8.31V175a4.45,4.45,0,0,0-2.17-.46,3.54,3.54,0,0,0-2,.64,4.55,4.55,0,0,0-1.5,1.69,4.86,4.86,0,0,0-.56,2.3v8.57h-2.63Z" style="fill: #636d74"/>
        <path d="M332.73,186.71a11.16,11.16,0,0,1-4.19-4.19,12.08,12.08,0,0,1,0-11.77,11.23,11.23,0,0,1,4.19-4.19,11.44,11.44,0,0,1,5.78-1.51,12.37,12.37,0,0,1,4.6.86,9.29,9.29,0,0,1,3.55,2.45l-1.89,1.89a6.86,6.86,0,0,0-2.71-2,9.17,9.17,0,0,0-3.55-.69,8.78,8.78,0,0,0-4.36,1.13,8.65,8.65,0,0,0-3.25,3.19,9.88,9.88,0,0,0,0,9.51,8.67,8.67,0,0,0,3.25,3.2,9.53,9.53,0,0,0,8.09.43,8.78,8.78,0,0,0,2.62-1.84,6.77,6.77,0,0,0,1.3-2.11,8.72,8.72,0,0,0,.59-2.7h-8.18v-2.45h10.66a9.64,9.64,0,0,1,.16,1.62,12.52,12.52,0,0,1-.65,4,8.87,8.87,0,0,1-2.08,3.39,10.7,10.7,0,0,1-8.15,3.32A11.45,11.45,0,0,1,332.73,186.71Z" style="fill: #636d74"/>
        <path d="M352.39,172.36h2.51v2.51H355a4.14,4.14,0,0,1,1.78-2.14,4.92,4.92,0,0,1,2.68-.87,5.32,5.32,0,0,1,1.8.31V175a4.45,4.45,0,0,0-2.17-.46,3.51,3.51,0,0,0-2,.64,4.66,4.66,0,0,0-1.51,1.69,4.85,4.85,0,0,0-.55,2.3v8.57h-2.64Z" style="fill: #636d74"/>
        <path d="M365.44,187.16a7.52,7.52,0,0,1-2.81-2.95,9.17,9.17,0,0,1,0-8.33,7.52,7.52,0,0,1,2.81-2.95,8.26,8.26,0,0,1,8.13,0,7.48,7.48,0,0,1,2.82,2.95,9.09,9.09,0,0,1,0,8.33,7.48,7.48,0,0,1-2.82,2.95,8.26,8.26,0,0,1-8.13,0Zm6.66-2a5.27,5.27,0,0,0,1.94-2,6.76,6.76,0,0,0,0-6.11,5.27,5.27,0,0,0-1.94-2,5.06,5.06,0,0,0-2.6-.71,5,5,0,0,0-2.57.71,5.27,5.27,0,0,0-1.94,2,6.76,6.76,0,0,0,0,6.11,5.27,5.27,0,0,0,1.94,2,5,5,0,0,0,2.57.71A5.06,5.06,0,0,0,372.1,185.13Z" style="fill: #636d74"/>
        <path d="M381.26,186.58a6.57,6.57,0,0,1-1.47-4.55v-9.67h2.63v9.24q0,4.25,3.81,4.24a3.88,3.88,0,0,0,2.28-.71,4.76,4.76,0,0,0,1.55-1.86,5.63,5.63,0,0,0,.54-2.42v-8.49h2.61v15.37h-2.48v-2.29h-.13a5.54,5.54,0,0,1-2.06,2,5.73,5.73,0,0,1-3,.81A5.48,5.48,0,0,1,381.26,186.58Z" style="fill: #636d74"/>
        <path d="M396.65,172.36h2.51v2.26h.12a6,6,0,0,1,2.14-2,6.48,6.48,0,0,1,3.22-.79,6.71,6.71,0,0,1,3.66,1.07,7.77,7.77,0,0,1,2.66,2.93,9.34,9.34,0,0,1,0,8.37,7.77,7.77,0,0,1-2.66,2.93,6.71,6.71,0,0,1-3.66,1.07,6.59,6.59,0,0,1-3.24-.79,5.55,5.55,0,0,1-2.12-2h-.12l.12,2.14v6.85h-2.63Zm10.11,12.77a5.08,5.08,0,0,0,1.86-2,7,7,0,0,0,0-6.11,5.08,5.08,0,0,0-1.86-2,4.75,4.75,0,0,0-2.52-.71,4.8,4.8,0,0,0-2.53.7,5,5,0,0,0-1.86,2,7.2,7.2,0,0,0,0,6.15,5,5,0,0,0,1.86,2,4.8,4.8,0,0,0,2.53.7A4.75,4.75,0,0,0,406.76,185.13Z" style="fill: #636d74"/>
        <path d="M415.74,187a6.58,6.58,0,0,1-2.39-3.07l2.32-1a5,5,0,0,0,1.76,2.23,4.62,4.62,0,0,0,4.92.12,1.88,1.88,0,0,0,1-1.58,1.84,1.84,0,0,0-.73-1.49,6.7,6.7,0,0,0-2.49-1l-2.11-.53a6.69,6.69,0,0,1-3-1.45,3.49,3.49,0,0,1-1.23-2.79,3.78,3.78,0,0,1,.83-2.45,5,5,0,0,1,2.18-1.55,8.22,8.22,0,0,1,3-.53,7.26,7.26,0,0,1,3.61.92,5.16,5.16,0,0,1,2.31,2.59l-2.33,1a3.26,3.26,0,0,0-1.5-1.64,4.67,4.67,0,0,0-2.25-.53,4.08,4.08,0,0,0-2.18.59,1.74,1.74,0,0,0-1,1.52,1.49,1.49,0,0,0,.64,1.27,6.35,6.35,0,0,0,2,.83l2.29.56a7.15,7.15,0,0,1,3.42,1.75,3.83,3.83,0,0,1,1.13,2.78,4,4,0,0,1-.77,2.41,5.2,5.2,0,0,1-2.17,1.71,7.75,7.75,0,0,1-3.16.62A6.9,6.9,0,0,1,415.74,187Z" style="fill: #636d74"/>
      </g>
      <g>
        <path d="M217.57,106l19.87-11.47a9.78,9.78,0,1,0-9.78-16.93L193.33,97.38Z" style="fill: #fd2c25"/>
        <path d="M232.54,135.45a9.78,9.78,0,0,0,4.9-18.25L203.11,97.38a9.78,9.78,0,1,0-9.78,16.94l34.33,19.82A9.72,9.72,0,0,0,232.54,135.45Z" style="fill: #2b82fb"/>
        <path d="M266.69,135.45a9.72,9.72,0,0,0,4.88-1.31l34.33-19.82L282,105.56,261.79,117.2a9.78,9.78,0,0,0,4.9,18.25Z" style="fill: #ffba00"/>
        <path d="M301,115.63a9.78,9.78,0,0,0,4.9-18.25L271.57,77.56a9.78,9.78,0,0,0-9.78,16.93l34.33,19.83A9.85,9.85,0,0,0,301,115.63Z" style="fill: #00a150"/>
      </g>
    </g>
    <g>
      <path d="M154.32,222.65a8,8,0,0,1-3-3.05,8.95,8.95,0,0,1,0-8.56,7.92,7.92,0,0,1,3-3,8.31,8.31,0,0,1,4.24-1.11,7.83,7.83,0,0,1,3.32.69,7.47,7.47,0,0,1,2.58,1.95l-1.35,1.33a5.57,5.57,0,0,0-2-1.62,5.84,5.84,0,0,0-2.53-.52,6.41,6.41,0,0,0-3.2.82,6,6,0,0,0-2.33,2.32,7.32,7.32,0,0,0,0,6.92,6,6,0,0,0,2.33,2.32,6.41,6.41,0,0,0,3.2.82,6.31,6.31,0,0,0,5-2.41l1.38,1.36a8.1,8.1,0,0,1-2.75,2.1,8.77,8.77,0,0,1-7.87-.32Z" style="fill: #2b82fb"/>
      <path d="M167,207.25H169v16.14H167Z" style="fill: #2b82fb"/>
      <path d="M173.77,223a5.46,5.46,0,0,1-2-2.14,6.65,6.65,0,0,1,0-6.06,5.46,5.46,0,0,1,2-2.14,6,6,0,0,1,5.92,0,5.41,5.41,0,0,1,2.05,2.14,6.65,6.65,0,0,1,0,6.06,5.41,5.41,0,0,1-2.05,2.14,6,6,0,0,1-5.92,0Zm4.85-1.47A3.94,3.94,0,0,0,180,220a4.91,4.91,0,0,0,0-4.44,3.94,3.94,0,0,0-1.41-1.48,3.74,3.74,0,0,0-3.77,0,3.84,3.84,0,0,0-1.4,1.48,4.91,4.91,0,0,0,0,4.44,3.84,3.84,0,0,0,1.4,1.48,3.74,3.74,0,0,0,3.77,0Z" style="fill: #2b82fb"/>
      <path d="M185.5,222.56a4.84,4.84,0,0,1-1.07-3.32v-7h1.92v6.72c0,2.06.92,3.08,2.77,3.08a2.84,2.84,0,0,0,1.66-.51,3.49,3.49,0,0,0,1.13-1.36,4.07,4.07,0,0,0,.39-1.75v-6.18h1.89v11.18h-1.8v-1.67h-.09a4,4,0,0,1-1.5,1.44,4.22,4.22,0,0,1-2.15.59A4,4,0,0,1,185.5,222.56Z" style="fill: #2b82fb"/>
      <path d="M198.93,223a5.41,5.41,0,0,1-1.94-2.13,6.82,6.82,0,0,1,0-6.1,5.41,5.41,0,0,1,1.94-2.13,4.88,4.88,0,0,1,2.66-.77,4.77,4.77,0,0,1,2.34.57,4,4,0,0,1,1.55,1.44h.09l-.09-1.54v-5.07h1.9v16.14h-1.81v-1.67h-.09a4,4,0,0,1-1.55,1.46,4.77,4.77,0,0,1-2.34.57A4.88,4.88,0,0,1,198.93,223Zm4.79-1.47a3.67,3.67,0,0,0,1.35-1.48,5.25,5.25,0,0,0,0-4.47,3.7,3.7,0,0,0-1.35-1.47,3.6,3.6,0,0,0-3.68,0,3.8,3.8,0,0,0-1.35,1.48,5.09,5.09,0,0,0,0,4.44A3.8,3.8,0,0,0,200,221.5a3.6,3.6,0,0,0,3.68,0Z" style="fill: #2b82fb"/>
      <path d="M216.6,217.89a2.55,2.55,0,0,1,0-3.61,2.42,2.42,0,0,1,1.78-.74,2.48,2.48,0,0,1,1.8.74,2.55,2.55,0,0,1-1.8,4.35A2.39,2.39,0,0,1,216.6,217.89Z" style="fill: #636d74"/>
      <path d="M233.72,207.25h2.17L242,223.39H239.9L238.3,219h-7l-1.63,4.44h-2.12Zm3.9,9.9-2.14-5.82-.63-1.73h-.09l-.65,1.73L232,217.15Z" style="fill: #636d74"/>
      <path d="M243.73,207.25h1.92v5.05l-.09,1.6h.09a3.69,3.69,0,0,1,1.47-1.46,4.27,4.27,0,0,1,2.18-.59,3.94,3.94,0,0,1,3.15,1.22,4.74,4.74,0,0,1,1.06,3.24v7.08h-1.89v-6.78a3,3,0,0,0-.76-2.29,3,3,0,0,0-3.65-.21,3.77,3.77,0,0,0-1.15,1.4,4.21,4.21,0,0,0-.41,1.79v6.09h-1.92Z" style="fill: #636d74"/>
      <path d="M256.22,212.21H258v1.67h.09a3.87,3.87,0,0,1,1.48-1.44,4,4,0,0,1,2-.59,3.84,3.84,0,0,1,2.17.6,3.37,3.37,0,0,1,1.32,1.63,4.77,4.77,0,0,1,1.63-1.62,4.22,4.22,0,0,1,2.27-.61A3.62,3.62,0,0,1,272,213a5,5,0,0,1,1,3.29v7.06h-1.92v-6.76a3.56,3.56,0,0,0-.62-2.35,2.43,2.43,0,0,0-1.9-.69,2.52,2.52,0,0,0-1.55.5,3.46,3.46,0,0,0-1.07,1.34,4.29,4.29,0,0,0-.38,1.76v6.2h-1.89v-6.76a3.49,3.49,0,0,0-.64-2.35,2.43,2.43,0,0,0-1.89-.69,2.49,2.49,0,0,0-1.55.51,3.51,3.51,0,0,0-1.06,1.36,4.13,4.13,0,0,0-.39,1.78v6.15h-1.91Z" style="fill: #636d74"/>
      <path d="M277.78,223a5.35,5.35,0,0,1-2-2.11,6.47,6.47,0,0,1-.72-3.07,6.67,6.67,0,0,1,.68-3,5.2,5.2,0,0,1,4.8-3,5.45,5.45,0,0,1,2.85.73,4.87,4.87,0,0,1,1.88,2.06,6.83,6.83,0,0,1,.65,3.07,1.62,1.62,0,0,1,0,.45H277a4.08,4.08,0,0,0,.61,2.13,3.58,3.58,0,0,0,1.41,1.3,3.85,3.85,0,0,0,1.74.42,3.59,3.59,0,0,0,3.27-2.07l1.69.81a5.88,5.88,0,0,1-2,2.18,6,6,0,0,1-6,0Zm6.12-6.42a3.64,3.64,0,0,0-.39-1.35,2.85,2.85,0,0,0-1.09-1.15,3.54,3.54,0,0,0-1.93-.47,3.18,3.18,0,0,0-2.18.81,3.66,3.66,0,0,0-1.18,2.16Z" style="fill: #636d74"/>
      <path d="M290.23,223a5.48,5.48,0,0,1-1.94-2.13,6.82,6.82,0,0,1,0-6.1,5.48,5.48,0,0,1,1.94-2.13,4.91,4.91,0,0,1,2.66-.77,4.77,4.77,0,0,1,2.34.57,4.12,4.12,0,0,1,1.56,1.44h.09l-.09-1.54v-5.07h1.89v16.14h-1.8v-1.67h-.09a4.09,4.09,0,0,1-1.56,1.46,4.77,4.77,0,0,1-2.34.57A4.91,4.91,0,0,1,290.23,223Zm4.79-1.47a3.67,3.67,0,0,0,1.35-1.48,5.15,5.15,0,0,0,0-4.47,3.7,3.7,0,0,0-1.35-1.47,3.6,3.6,0,0,0-3.68,0,3.8,3.8,0,0,0-1.35,1.48,5.09,5.09,0,0,0,0,4.44,3.8,3.8,0,0,0,1.35,1.48,3.6,3.6,0,0,0,3.68,0Z" style="fill: #636d74"/>
      <path d="M302.82,223.27a3.78,3.78,0,0,1-1.54-1.36,3.55,3.55,0,0,1-.55-1.95,3.26,3.26,0,0,1,1.34-2.77,5.65,5.65,0,0,1,3.44-1,7.68,7.68,0,0,1,1.87.22,6.69,6.69,0,0,1,1.33.5v-.59a2.59,2.59,0,0,0-.42-1.45,2.79,2.79,0,0,0-1.11-1,3.38,3.38,0,0,0-1.51-.35,3.27,3.27,0,0,0-2.93,1.56l-1.6-1.06a4.73,4.73,0,0,1,1.84-1.62,5.78,5.78,0,0,1,2.6-.57,5.11,5.11,0,0,1,3.63,1.24,4.37,4.37,0,0,1,1.33,3.33v7h-1.83v-1.65h-.09a4.5,4.5,0,0,1-1.47,1.44,4,4,0,0,1-2.14.57A4.89,4.89,0,0,1,302.82,223.27Zm4.06-1.68a3.88,3.88,0,0,0,1.32-1.29,3.25,3.25,0,0,0,.51-1.76,5.26,5.26,0,0,0-2.91-.81,3.7,3.7,0,0,0-2.26.64,2,2,0,0,0-.85,1.64,1.77,1.77,0,0,0,.75,1.47,2.7,2.7,0,0,0,1.73.58A3.39,3.39,0,0,0,306.88,221.59Z" style="fill: #636d74"/>
      <path d="M316.61,223.18a4,4,0,0,1-1.54-1.46H315v1.67h-1.82V207.25h1.92v5.07l-.1,1.54h.1a4.24,4.24,0,0,1,1.55-1.44,4.72,4.72,0,0,1,2.34-.57,4.81,4.81,0,0,1,2.66.78,5.55,5.55,0,0,1,1.94,2.13,6.78,6.78,0,0,1,0,6.08,5.55,5.55,0,0,1-1.94,2.13,4.81,4.81,0,0,1-2.66.78A4.75,4.75,0,0,1,316.61,223.18Zm3.9-1.68a3.8,3.8,0,0,0,1.35-1.48,5.09,5.09,0,0,0,0-4.44,3.8,3.8,0,0,0-1.35-1.48,3.6,3.6,0,0,0-3.68,0,3.7,3.7,0,0,0-1.35,1.47,5.15,5.15,0,0,0,0,4.47,3.67,3.67,0,0,0,1.35,1.48,3.6,3.6,0,0,0,3.68,0Z" style="fill: #636d74"/>
      <path d="M327.88,223.27a3.69,3.69,0,0,1-1.53-1.36,3.55,3.55,0,0,1-.56-1.95,3.26,3.26,0,0,1,1.34-2.77,5.65,5.65,0,0,1,3.44-1,7.62,7.62,0,0,1,1.87.22,6.69,6.69,0,0,1,1.33.5v-.59a2.67,2.67,0,0,0-.41-1.45,2.82,2.82,0,0,0-1.12-1,3.38,3.38,0,0,0-1.51-.35,3.29,3.29,0,0,0-2.93,1.56L326.2,214a4.69,4.69,0,0,1,1.85-1.62,5.73,5.73,0,0,1,2.59-.57,5.11,5.11,0,0,1,3.63,1.24,4.37,4.37,0,0,1,1.33,3.33v7h-1.83v-1.65h-.09a4.57,4.57,0,0,1-1.46,1.44,4,4,0,0,1-2.14.57A4.9,4.9,0,0,1,327.88,223.27Zm4.07-1.68a3.76,3.76,0,0,0,1.31-1.29,3.25,3.25,0,0,0,.51-1.76,5.26,5.26,0,0,0-2.91-.81,3.7,3.7,0,0,0-2.26.64,2,2,0,0,0-.85,1.64,1.77,1.77,0,0,0,.75,1.47,2.7,2.7,0,0,0,1.73.58A3.42,3.42,0,0,0,332,221.59Z" style="fill: #636d74"/>
      <path d="M340.13,223a5.48,5.48,0,0,1-1.94-2.13,6.82,6.82,0,0,1,0-6.1,5.48,5.48,0,0,1,1.94-2.13,4.91,4.91,0,0,1,2.66-.77,4.77,4.77,0,0,1,2.34.57,4.12,4.12,0,0,1,1.56,1.44h.09l-.09-1.54v-5.07h1.89v16.14h-1.8v-1.67h-.09a4.09,4.09,0,0,1-1.56,1.46,4.77,4.77,0,0,1-2.34.57A4.91,4.91,0,0,1,340.13,223Zm4.79-1.47a3.67,3.67,0,0,0,1.35-1.48,5.15,5.15,0,0,0,0-4.47,3.7,3.7,0,0,0-1.35-1.47,3.6,3.6,0,0,0-3.68,0,3.8,3.8,0,0,0-1.35,1.48,5.09,5.09,0,0,0,0,4.44,3.8,3.8,0,0,0,1.35,1.48,3.6,3.6,0,0,0,3.68,0Z" style="fill: #636d74"/>
    </g>
  </g>
</svg>
